<svg xmlns="http://www.w3.org/2000/svg" xmlns:xlink="http://www.w3.org/1999/xlink" width="305" height="305" viewBox="0 0 305 305">
  <defs>
    <linearGradient id="linear-gradient" x1="0.5" x2="0.5" y2="1" gradientUnits="objectBoundingBox">
      <stop offset="0"/>
      <stop offset="1" stop-color="#676767"/>
      <stop offset="1" stop-color="#454545"/>
    </linearGradient>
  </defs>
  <g id="Group_1" data-name="Group 1" transform="translate(-54.5 -65.5)">
    <path id="Icon_awesome-sticky-note" data-name="Icon awesome-sticky-note" d="M208.929,195.107H300V18.321A16.033,16.033,0,0,0,283.929,2.25H16.071A16.033,16.033,0,0,0,0,18.321V286.179A16.033,16.033,0,0,0,16.071,302.25H192.857V211.179A16.119,16.119,0,0,1,208.929,195.107Zm86.384,36.83-65.625,65.625A16.059,16.059,0,0,1,218.3,302.25h-4.018V216.536H300v4.085A16.02,16.02,0,0,1,295.313,231.938Z" transform="translate(57 65.75)" stroke="#fff" stroke-width="5" fill="url(#linear-gradient)"/>
    <line id="Line_1" data-name="Line 1" x2="225" transform="translate(94.5 117.5)" fill="none" stroke="#fff" stroke-width="5"/>
    <line id="Line_1-2" data-name="Line 1" x2="225" transform="translate(94.5 161.5)" fill="none" stroke="#fff" stroke-width="5"/>
    <line id="Line_1-3" data-name="Line 1" x2="225" transform="translate(94.5 205.5)" fill="none" stroke="#fff" stroke-width="5"/>
    <path id="Path_2" data-name="Path 2" d="M0,0H225" transform="translate(94.5 249.5)" fill="none" stroke="#fff" stroke-width="5"/>
    <line id="Line_1-4" data-name="Line 1" x2="155" transform="translate(94.5 293.5)" fill="none" stroke="#fff" stroke-width="5"/>
  </g>
</svg>
